name rise43.5482peak65.4966fall89.1036.mot
datacolumns 19
datarows 32
range 17.32159800000000 17.37326200000000
endheader
time	ground_force1_vx	ground_force1_vy	ground_force1_vz	ground_force1_px	ground_force1_py	ground_force1_pz	ground_force2_vx	ground_force2_vy	ground_force2_vz	ground_force2_px	ground_force2_py	ground_force2_pz	ground_torque1_x	ground_torque1_y	ground_torque1_z	ground_torque2_x	ground_torque2_y	ground_torque2_z	
17.32159800000000	-40.41910300000000	805.17240300000003	55.78350000000000	0.10829800000000	0.00000000000000	0.11911400000000	0.00000000000000	0.00000000000000	0.00000000000000	0.00000000000000	0.00000000000000	0.00000000000000	0.00000000000000	19.90427000000000	0.00000000000000	0.00000000000000	0.00000000000000	0.00000000000000	
17.32326200000000	-41.19825700000000	804.63183300000003	55.83041300000000	0.10731500000000	0.00000000000000	0.11904100000000	0.00000000000000	0.00000000000000	0.00000000000000	0.00000000000000	0.00000000000000	0.00000000000000	0.00000000000000	19.94423500000000	0.00000000000000	0.00000000000000	0.00000000000000	0.00000000000000	
17.32493500000000	-41.99983100000000	804.00120700000002	55.86244400000000	0.10632500000000	0.00000000000000	0.11896600000000	0.00000000000000	0.00000000000000	0.00000000000000	0.00000000000000	0.00000000000000	0.00000000000000	0.00000000000000	19.98710600000000	0.00000000000000	0.00000000000000	0.00000000000000	0.00000000000000	
17.32659900000000	-42.82381700000000	803.27754900000002	55.87906500000000	0.10533100000000	0.00000000000000	0.11888900000000	0.00000000000000	0.00000000000000	0.00000000000000	0.00000000000000	0.00000000000000	0.00000000000000	0.00000000000000	20.03292500000000	0.00000000000000	0.00000000000000	0.00000000000000	0.00000000000000	
17.32826200000000	-43.67013000000000	802.45782799999995	55.87975600000000	0.10433100000000	0.00000000000000	0.11881000000000	0.00000000000000	0.00000000000000	0.00000000000000	0.00000000000000	0.00000000000000	0.00000000000000	0.00000000000000	20.08171600000000	0.00000000000000	0.00000000000000	0.00000000000000	0.00000000000000	
17.32993400000000	-44.53860700000000	801.53896199999997	55.86401200000000	0.10332600000000	0.00000000000000	0.11872800000000	-1.77614400000000	3.44965000000000	1.28416500000000	0.00000000000000	0.00000000000000	0.00000000000000	0.00000000000000	20.13349400000000	0.00000000000000	0.00000000000000	0.34614300000000	0.00000000000000	
17.33159600000000	-45.42900000000000	800.51782200000002	55.83133900000000	0.10231500000000	0.00000000000000	0.11864500000000	-2.83807300000000	6.76367100000000	2.20501700000000	0.00000000000000	0.00000000000000	0.00000000000000	0.00000000000000	20.18825600000000	0.00000000000000	0.00000000000000	0.61477200000000	0.00000000000000	
17.33326700000000	-46.34098000000000	799.39122799999996	55.78125700000000	0.10130100000000	0.00000000000000	0.11856000000000	-4.03847600000000	10.78377400000000	3.27840700000000	0.00000000000000	0.00000000000000	0.00000000000000	0.00000000000000	20.24598600000000	0.00000000000000	0.00000000000000	0.93150800000000	0.00000000000000	
17.33493000000000	-47.27412800000000	798.15595800000006	55.71330300000000	0.10028100000000	0.00000000000000	0.11847300000000	-5.34077700000000	15.47171000000000	4.48129400000000	0.00000000000000	0.00000000000000	0.00000000000000	0.00000000000000	20.30665300000000	0.00000000000000	0.00000000000000	1.29059400000000	0.00000000000000	
17.33660000000000	-48.22793700000000	796.80874900000003	55.62702800000000	0.09925800000000	0.00000000000000	0.11838400000000	-6.69932500000000	20.75857700000000	5.78233600000000	0.00000000000000	0.00000000000000	0.00000000000000	0.00000000000000	20.37020800000000	0.00000000000000	0.00000000000000	1.68380800000000	0.00000000000000	
17.33826100000000	-49.20180700000000	795.34629800000005	55.52200200000000	0.09823100000000	0.00000000000000	0.11829300000000	-8.06238200000000	26.55006400000000	7.14398000000000	0.32374600000000	0.00000000000000	-0.06773900000000	0.00000000000000	20.43658900000000	0.00000000000000	0.00000000000000	3.86770200000000	0.00000000000000	
17.33994300000000	-50.19504700000000	793.76527399999998	55.39781400000000	0.09720100000000	0.00000000000000	0.11820000000000	-9.37588800000000	32.73443100000000	8.52526100000000	0.32850500000000	0.00000000000000	-0.06855900000000	0.00000000000000	20.50571500000000	0.00000000000000	0.00000000000000	4.68869800000000	0.00000000000000	
17.34159700000000	-51.20687000000000	792.06231400000001	55.25407200000000	0.09616900000000	0.00000000000000	0.11810400000000	-10.58753100000000	39.19216500000000	9.88497000000000	0.33273600000000	0.00000000000000	-0.06930500000000	0.00000000000000	20.57748900000000	0.00000000000000	0.00000000000000	5.51728100000000	0.00000000000000	
17.34326400000000	-52.23639400000000	790.23403599999995	55.09040600000000	0.09513400000000	0.00000000000000	0.11800700000000	-11.65054400000000	45.80592200000000	11.18472100000000	0.33653200000000	0.00000000000000	-0.06998900000000	0.00000000000000	20.65179500000000	0.00000000000000	0.00000000000000	6.33182600000000	0.00000000000000	
17.34494700000000	-53.28264000000000	788.27704300000005	54.90646900000000	0.09409800000000	0.00000000000000	0.11790800000000	-12.52677300000000	52.46944200000000	12.39155700000000	0.33996600000000	0.00000000000000	-0.07062100000000	0.00000000000000	20.72850100000000	0.00000000000000	0.00000000000000	7.11314500000000	0.00000000000000	
17.34660100000000	-54.34453300000000	786.18792699999995	54.70193700000000	0.09306200000000	0.00000000000000	0.11780700000000	-13.18870400000000	59.09447500000000	13.47979800000000	0.34309500000000	0.00000000000000	-0.07120700000000	0.00000000000000	20.80745700000000	0.00000000000000	0.00000000000000	7.84562100000000	0.00000000000000	
17.34826300000000	-55.42090200000000	783.96328000000005	54.47650900000000	0.09202500000000	0.00000000000000	0.11770300000000	-13.62034400000000	65.61524799999999	14.43205000000000	0.34596700000000	0.00000000000000	-0.07175500000000	0.00000000000000	20.88849200000000	0.00000000000000	0.00000000000000	8.51789900000000	0.00000000000000	
17.34995000000000	-56.51047800000000	781.59970299999998	54.22991400000000	0.09098900000000	0.00000000000000	0.11759800000000	-13.81703400000000	71.99037100000000	15.23937500000000	0.34862100000000	0.00000000000000	-0.07226900000000	0.00000000000000	20.97142000000000	0.00000000000000	0.00000000000000	9.12311100000000	0.00000000000000	
17.35159400000000	-57.61189500000000	779.09380799999997	53.96190300000000	0.08995400000000	0.00000000000000	0.11749100000000	-13.78437200000000	78.20243300000000	15.90074100000000	0.35108700000000	0.00000000000000	-0.07275300000000	0.00000000000000	21.05603200000000	0.00000000000000	0.00000000000000	9.65871000000000	0.00000000000000	
17.35326300000000	-58.72369400000000	776.44223399999998	53.67225900000000	0.08892200000000	0.00000000000000	0.11738100000000	-13.53645900000000	84.25567700000001	16.42192000000000	0.35339200000000	0.00000000000000	-0.07321000000000	0.00000000000000	21.14210500000000	0.00000000000000	0.00000000000000	10.12596700000000	0.00000000000000	
17.35493500000000	-59.84432000000000	773.64165200000002	53.36079300000000	0.08789300000000	0.00000000000000	0.11727000000000	-13.09376100000000	90.17230600000001	16.81401100000000	0.35555700000000	0.00000000000000	-0.07364500000000	0.00000000000000	21.22939200000000	0.00000000000000	0.00000000000000	10.52924200000000	0.00000000000000	
17.35659800000000	-60.97212600000000	770.68877499999996	53.02734600000000	0.08686700000000	0.00000000000000	0.11715700000000	-12.48080200000000	95.98794100000001	17.09178500000000	0.35760100000000	0.00000000000000	-0.07405900000000	0.00000000000000	21.31763100000000	0.00000000000000	0.00000000000000	10.87513600000000	0.00000000000000	
17.35826200000000	-62.10537500000000	767.58037000000002	52.67179000000000	0.08584700000000	0.00000000000000	0.11704100000000	-11.72392700000000	101.74676700000001	17.27201800000000	0.35953800000000	0.00000000000000	-0.07445400000000	0.00000000000000	21.40653700000000	0.00000000000000	0.00000000000000	11.17159500000000	0.00000000000000	
17.35992800000000	-63.24224100000000	764.31326700000000	52.29402900000000	0.08483200000000	0.00000000000000	0.11692400000000	-10.84929400000000	107.49681699999999	17.37194200000000	0.36138200000000	0.00000000000000	-0.07483200000000	0.00000000000000	21.49581000000000	0.00000000000000	0.00000000000000	11.42706900000000	0.00000000000000	
17.36159900000000	-64.38081200000001	760.88436700000000	51.89400200000000	0.08382300000000	0.00000000000000	0.11680500000000	-9.88121600000000	113.28574200000000	17.40792500000000	0.36314200000000	0.00000000000000	-0.07519500000000	0.00000000000000	21.58512800000000	0.00000000000000	0.00000000000000	11.64977000000000	0.00000000000000	
17.36326200000000	-65.51909300000000	757.29066000000000	51.47168000000000	0.08282200000000	0.00000000000000	0.11668400000000	-8.84092900000000	119.15731200000000	17.39445200000000	0.36482800000000	0.00000000000000	-0.07554500000000	0.00000000000000	21.67415400000000	0.00000000000000	0.00000000000000	11.84708000000000	0.00000000000000	
17.36493500000000	-66.65501200000000	753.52922599999999	51.02706900000000	0.08183000000000	0.00000000000000	0.11656000000000	-7.74580500000000	125.14880800000000	17.34340800000000	0.36644700000000	0.00000000000000	-0.07588200000000	0.00000000000000	21.76252900000000	0.00000000000000	0.00000000000000	12.02511800000000	0.00000000000000	
17.36660000000000	-67.78642000000001	749.59725600000002	50.56021200000000	0.08084600000000	0.00000000000000	0.11643500000000	-6.60898100000000	131.28931600000001	17.26369900000000	0.36800500000000	0.00000000000000	-0.07620700000000	0.00000000000000	21.84988000000000	0.00000000000000	0.00000000000000	12.18848400000000	0.00000000000000	
17.36826100000000	-68.91109600000000	745.49206000000004	50.07118900000000	0.07987200000000	0.00000000000000	0.11630800000000	-5.43938100000000	137.59892700000000	17.16114800000000	0.36950800000000	0.00000000000000	-0.07652200000000	0.00000000000000	21.93581600000000	0.00000000000000	0.00000000000000	12.34016000000000	0.00000000000000	
17.36995700000000	-70.02675300000000	741.21107800000004	49.56011300000000	0.07890900000000	0.00000000000000	0.11618000000000	-4.24202700000000	144.08870899999999	17.03864500000000	0.37095800000000	0.00000000000000	-0.07682700000000	0.00000000000000	22.01992800000000	0.00000000000000	0.00000000000000	12.48155100000000	0.00000000000000	
17.37159600000000	-71.13104500000000	736.75189399999999	49.02713900000000	0.07795800000000	0.00000000000000	0.11604900000000	-3.01859700000000	150.76132699999999	16.89648900000000	0.37236100000000	0.00000000000000	-0.07712300000000	0.00000000000000	22.10179600000000	0.00000000000000	0.00000000000000	12.61263600000000	0.00000000000000	
17.37326200000000	-72.22156600000000	732.11225200000001	48.47245700000000	0.07701800000000	0.00000000000000	0.11591600000000	-1.76811600000000	157.61214200000001	16.73285300000000	0.37371800000000	0.00000000000000	-0.07741100000000	0.00000000000000	22.18098200000000	0.00000000000000	0.00000000000000	12.73219600000000	0.00000000000000	
